<?xml version="1.0" encoding="utf-8"?>
<!-- Generator: Adobe Illustrator 21.0.0, SVG Export Plug-In . SVG Version: 6.00 Build 0)  -->
<svg version="1.1" id="Layer_1" xmlns="http://www.w3.org/2000/svg" xmlns:xlink="http://www.w3.org/1999/xlink" x="0px" y="0px"
	 viewBox="0 0 880.6 271.5" style="enable-background:new 0 0 880.6 271.5;" xml:space="preserve">
<style type="text/css">
	.st0{fill:#FFFFFF;}
	.st1{font-family:'FreightDispProBook-Regular';}
	.st2{font-size:76.0182px;}
	.st3{font-size:73.5978px;}
	.st4{font-family:'FreightBigProBook-Regular';}
	.st5{font-size:184.1056px;}
</style>
<text transform="matrix(0.9679 0 0 1 -33.0689 256.2668)"><tspan x="0" y="0" class="st0 st1 st2">      </tspan><tspan x="82.1" y="0" class="st0 st1 st3">Philanthropic Fund</tspan></text>
<g>
	<path class="st0" d="M850.2,208.5c8.2,3.7,12.9,7.8,12.9,12.2c0,15.8-59.9,29.3-133.8,29.3s-133.8-13.5-133.8-29.3
		c0-0.3,0-0.6,0.1-0.8c-2,2.2-3.1,4.4-3.1,6.7c0,17.8,63.2,33.7,141.1,33.7c77.9,0,141.1-15.9,141.1-33.7
		C874.5,219.8,865.5,213.6,850.2,208.5z"/>
	<path class="st0" d="M737.6,229.7c-48.6-0.3-87.9-8.1-87.8-17.2c0-3.4,5.1-6.7,14.1-9.6c-12.3,3.1-19.9,7-20.7,11.2
		c-2.3,11.6,29.9,22.8,90.5,22.7c55-0.1,88.4-7.9,90.7-20.3C817.3,224.2,781.1,230,737.6,229.7z"/>
	<path class="st0" d="M756.8,202.5c3.8,1.2,6,2.7,6,4.1c0,3.4-14.2,6.2-31.7,6.2c-16.5,0-30.1-2.5-31.6-5.6c0,0,0,0,0,0
		c0,3.9,6.6,10.7,32.7,10.7c24.1,0.1,32.7-6.8,32.7-10.7C764.9,205.4,761.8,203.7,756.8,202.5z"/>
</g>
<text transform="matrix(0.9679 0 0 1 -36.2857 145.7053)"><tspan x="0" y="0" class="st0 st4 st5">  </tspan><tspan x="66.3" y="0" class="st0 st1 st5">Wellspring</tspan></text>
</svg>
