<?xml version="1.0" encoding="utf-8"?>
<!-- Generator: Adobe Illustrator 21.0.0, SVG Export Plug-In . SVG Version: 6.00 Build 0)  -->
<svg version="1.1" id="Layer_1" xmlns="http://www.w3.org/2000/svg" xmlns:xlink="http://www.w3.org/1999/xlink" x="0px" y="0px"
	 viewBox="0 0 128 128" style="enable-background:new 0 0 128 128;" xml:space="preserve">
<style type="text/css">
	.st0{fill:#32415C;}
</style>
<g>
	<path class="st0" d="M64,30c-6.6,0-12,5.4-12,12v8h24v-8C76,35.4,70.6,30,64,30z"/>
	<path class="st0" d="M70,71c0-3.3-2.7-6-6-6s-6,2.7-6,6c0,2.3,1.3,4.3,3.2,5.3L58,84.5h12l-3.2-8.2C68.7,75.3,70,73.3,70,71z"/>
	<path class="st0" d="M64,0C28.7,0,0,28.7,0,64c0,35.3,28.7,64,64,64s64-28.7,64-64C128,28.7,99.3,0,64,0z M89,96c0,2.2-1.8,4-4,4
		H43c-2.2,0-4-1.8-4-4V54c0-2.2,1.8-4,4-4h5v-8c0-8.8,7.2-16,16-16s16,7.2,16,16v8h5c2.2,0,4,1.8,4,4V96z"/>
</g>
</svg>
