<?xml version="1.0" encoding="utf-8"?>
<!-- Generator: Adobe Illustrator 21.0.0, SVG Export Plug-In . SVG Version: 6.00 Build 0)  -->
<svg version="1.1" id="Layer_1" xmlns="http://www.w3.org/2000/svg" xmlns:xlink="http://www.w3.org/1999/xlink" x="0px" y="0px"
	 viewBox="0 0 136 136" style="enable-background:new 0 0 136 136;" xml:space="preserve">
<style type="text/css">
	.st0{fill:#32415C;}
	.st1{fill:#FFFFFF;}
</style>
<circle class="st0" cx="68" cy="68" r="68"/>
<g>
	<path class="st1" d="M113.6,34.1c-7.4,0-13.4,6-13.4,13.4c0,2.4,0.6,4.6,1.7,6.5L87,68.9c-1.9-1.1-4.1-1.7-6.5-1.7
		c-2.4,0-4.6,0.6-6.5,1.7l-6.7-6.7c1.1-1.9,1.7-4.1,1.7-6.5c0-7.4-6-13.4-13.4-13.4s-13.4,6-13.4,13.4c0,2.4,0.6,4.6,1.7,6.5
		L29,77.1c-1.9-1.1-4.1-1.7-6.5-1.7c-7.4,0-13.4,6-13.4,13.4c0,7.4,6,13.4,13.4,13.4s13.4-6,13.4-13.4c0-2.4-0.6-4.6-1.7-6.5
		l14.9-14.9c1.9,1.1,4.1,1.7,6.5,1.7c2.4,0,4.6-0.6,6.5-1.7l6.7,6.7c-1.1,1.9-1.7,4.1-1.7,6.5c0,7.4,6,13.4,13.4,13.4
		c7.4,0,13.4-6,13.4-13.4c0-2.4-0.6-4.6-1.7-6.5l14.9-14.9c1.9,1.1,4.1,1.7,6.5,1.7c7.4,0,13.4-6,13.4-13.4S121,34.1,113.6,34.1z
		 M22.5,94.8c-3.4,0-6.1-2.7-6.1-6.1c0-3.4,2.7-6.1,6.1-6.1s6.1,2.7,6.1,6.1C28.6,92.1,25.9,94.8,22.5,94.8z M55.6,61.7
		c-3.4,0-6.1-2.7-6.1-6.1c0-3.4,2.7-6.1,6.1-6.1c3.4,0,6.1,2.7,6.1,6.1C61.7,59,59,61.7,55.6,61.7z M80.5,86.6
		c-3.4,0-6.1-2.7-6.1-6.1c0-3.4,2.7-6.1,6.1-6.1c3.4,0,6.1,2.7,6.1,6.1C86.6,83.9,83.9,86.6,80.5,86.6z M113.6,53.5
		c-3.4,0-6.1-2.7-6.1-6.1c0-3.4,2.7-6.1,6.1-6.1s6.1,2.7,6.1,6.1C119.7,50.8,117,53.5,113.6,53.5z"/>
</g>
</svg>
