<svg id="Layer_1" data-name="Layer 1" xmlns="http://www.w3.org/2000/svg" viewBox="0 0 686 214.96"><defs><style>.cls-1,.cls-10,.cls-2,.cls-3,.cls-9{isolation:isolate;}.cls-2{font-size:58.39px;}.cls-10,.cls-2,.cls-3,.cls-8,.cls-9{fill:#ffffff;}.cls-10,.cls-2,.cls-3{font-family:FreightDispProBook-Regular, FreightDisp Pro;}.cls-3{font-size:56.53px;}.cls-4{letter-spacing:-0.01em;}.cls-5{letter-spacing:-0.01em;}.cls-6{letter-spacing:0em;}.cls-7{letter-spacing:-0.02em;}.cls-10,.cls-9{font-size:141.4px;}.cls-9{font-family:FreightBigProBook-Regular, FreightBig Pro;}.cls-11{letter-spacing:-0.09em;}.cls-12{letter-spacing:0.01em;}</style></defs><title>Artboard 1</title><g class="cls-1"><text class="cls-2" transform="translate(-15.93 198.75) scale(0.97 1)"><tspan xml:space="preserve">      </tspan></text><text class="cls-3" transform="translate(45.01 198.75) scale(0.97 1)"><tspan class="cls-4">P</tspan><tspan x="30.3" y="0">hilanth</tspan><tspan class="cls-5" x="182.07" y="0">r</tspan><tspan class="cls-6" x="201.23" y="0">opic </tspan><tspan class="cls-7" x="304" y="0">F</tspan><tspan x="333.73" y="0">und</tspan></text></g><path class="cls-8" d="M662.37,162c6.39,2.84,9.93,6,9.93,9.4,0,12.06-45.94,22.53-102.88,22.53s-102.88-10.47-102.88-22.53v-.71a7.19,7.19,0,0,0-2.31,5.14c0,13.66,48.42,25.9,108.38,25.9,59.78,0,108.38-12.24,108.38-25.9C681.17,170.74,674.26,166,662.37,162Z"/><path class="cls-8" d="M576,178.37c-37.25-.18-67.58-6.21-67.4-13.3,0-2.66,3.9-5.14,10.82-7.27-9.4,2.31-15.25,5.32-16,8.69-1.77,8.87,22.88,17.56,69.53,17.38,42.22,0,67.93-6,69.71-15.61C637.18,174.11,609.34,178.54,576,178.37Z"/><path class="cls-8" d="M590.71,157.44c2.84.89,4.61,2.13,4.61,3.19,0,2.66-10.82,4.79-24.3,4.79-12.77,0-23.06-2-24.3-4.26h0c0,3,5.14,8.16,25.19,8.34,18.45,0,25.19-5.14,25.19-8.34C596.92,159.74,594.61,158.32,590.71,157.44Z"/><g class="cls-1"><text class="cls-9" transform="translate(-18.4 113.83) scale(0.97 1)"><tspan xml:space="preserve">  </tspan></text><text class="cls-10" transform="translate(30.87 113.83) scale(0.97 1)"><tspan class="cls-11">W</tspan><tspan x="124.29" y="0">e</tspan><tspan class="cls-12" x="184.53" y="0">l</tspan><tspan x="217.9" y="0">lspring</tspan></text></g></svg>